<svg class="qodef-svg--fullscreen-menu" xmlns="http://www.w3.org/2000/svg" width="917.21" height="513.7" viewBox="0 0 917.2 513.7"><path d="M489.8,434c-5.9-4.9-2.9-2.1-9,4.2c-6.1,6.4-2.3-2.7-4.5-16c-2.1-13.3-1.9,7.2-2.2,18.4
	c-0.2,11.3-14.6-16.5-33.6-27.3c-19-10.8,16.6,10,20.8,10.2s-15.1,4.6-43.8-2.6c-28.8-7.2-20.3,15.7-18.9,31.1
	c1.4,15.4,28.2,36.6,29.9,41.3s17.5,0.7,39.2,0.1c21.6-0.5-6.7,7.1-14,8.2s57-0.5,81.4-3.6c24.3-3.1-15.4-1.9-27.3-3.7
	c-11.9-1.8,9.6-2.3,35.2-9.9c25.5-7.6-12.4-1.1-38-2.8c-25.7-1.7,5.4-1.8,23.3-8.4c17.9-6.6-34.6,3.3-43,4.3s16.3-12,29-20.1
	c12.6-8.1-25.1,5.6-43.8,12.2c-18.8,6.6,4.4-11.1,9.4-22.2c5-11-18.8,11.2-24.4,22.9c-5.7,11.8-5.2-11.5-14.3-32.5
	c-9.1-20.9-2.1,13.2,0.1,23.9c2.2,10.8-9.5-4.4-33.5-14c-24-9.7,4,10.2,11.6,20.5s-6.1,0.4-22.8-7.6c-16.8-8,9.6,29.8,12.5,35.3
	s-6.9,7.1-21.5,7.3c-14.7,0.1-16.8-10.7-27.4-25.3s2.4,2.1,3.2,15.6c0.8,13.5-2.4-0.8-24.1-13.1c-21.7-12.3-1.3,4,2.4,21.7
	c3.8,17.7-9.7-3.1-21.7-15s-10.2,11.8-23.4,16.1c-13.2,4.3-4.9-0.9-0.4-5.4s-36.6-17.7-39.3-30s2.8-9.4,8.8-21.3
	c6-11.9,0.2-5.4-9.6-9.8s2.3-11.4,12.3-14.3c10-2.9-1.7-4.1-7.2-5s-3.5-4.9,5.8-5.8c9.3-0.9,4.4-1.2-0.8-12.1s6.8-0.4,13.6-0.1
	s4.4,14.3,0.1,32.9c-4.4,18.7-1.3,20.8-8.8,38.8c-7.5,18-6.6,10.6-15.1,4.8s-6.1-20.6-9-43c-2.9-22.4,2.4-13.4,4.7-26.1
	c2.3-12.6,3.5-11.9,10.7-22.3c7.2-10.4,11.8-2.1,25.8,1.2c14,3.3,8.7,15.1,10.2,44.6c1.5,29.7-5.4,14.6-6.3,40.2
	c-0.3,10.1-1.9,15.2-5.2,17.6c-5.1,3.8-14.4,1-29.5,0c-24.9-1.6-15.4-21.7-21.1-34.1s-0.8-12.2-1.9-32.5c-1.1-20.2,5.8-6.5,7.8-9.1
	s-4.4-15-6.5-23.8s7.4,1.7,9.3-0.9s0.5-13.4,5.7-19.1s9.8,1.8,11.3-6.1s8.2-3.6,17.9-1.1s77.7,13,85,14.7s7.6,9,7.6,9
	s4.3,19.4,4.6,32.7c0.2,13.3,3.7-2.5,7.5-8.3s1,6.7-1.8,21.9c-2.8,15.2-1.1,19.3,2.7,14.1s3.6,2.1-1.1,19.3c-4.7,17.3-6.7,21.9-3,22
	s-5.8,10.5-17.7,20.9c-11.9,10.4-78.3,1.2-96.3-0.1c-18-1.3-11.6-7.2-25.3-24.1s-4,6-4,6s-9.7-70.2-9.2-85c0.6-14.8,8.1-80.5,9.4-99
	c1.3-18.4,4.6-24.2,8.6-31.2s-3.1,16.3-3.2,19.6s41.9-6.3,55.5-12.8c13.6-6.5,10.8-13.8,9.3-22.4s2.2,26.3,5.1,30.4
	s15.4-7.7,24.4-3.9s-3,39.2-1.8,58.4c1.2,19.2,30,10.1,37,19s-60.5,9.7-63.9,2.2s-1.2-74.7-2.2-80.6s-2.7,9,2,11.9s31-1,31-1
	s2.7-29.9-2-53.6c-4.7-23.6-58-6-70.8-3.5c-12.9,2.5-5.2,17.4-14.3,21.8c-9.1,4.4-5.2-1.3,0.2-5.2s-27-7.5-24.1-10.2
	s35-1.6,34.6-7.8s-1.5-41.8-2-45.4s-2.4-32.2-3.9-41.3s4.2,25.5,8.7,34.5s16.4,17.2,19.1,18s12.9-4.1,13.9-6.6s-13.5-11.2-18.4-26.4
	c-4.9-15.2-8.2-33.7-13.2-45.9s-21.8-15.9-23.7-22.5s0.8-11.5,3.2-20.3s3.5-28.7-5-33.8s-26.6-0.4-36.8,4
	c-10.2,4.4-10.6,13.3-10.5,11.4s-0.8-17.3,0.6-22s6.3-19,19.1-19.9c12.7-0.9,26.9,6.8,30.9,14.1s2.5,14.1,4.4,18.7
	s4.4,12.1,5.8,15.1s7-2,14.1-5S283.2,57,281,50.5s-25.8-8.6-43-9.2c-17.2-0.6-49.4,4.3-61.2,9.5C165,56,160.3,64,160.1,67.6
	s4.2,2.5,7.2,2.8s1.4,2.7,8.4,4.5s21.8-2,24.2-2.1s2.9,4.4,3.8,4.4s-2.5-11.7,0-14.4s4.4,2.9,6.1,6.2s1.3-0.9,1.8-5.6
	s-0.1-12.1,10-14c10.1-1.8,26.5,1.9,27.7,10.3s-5.1,38.6-16.2,42.3c-11.1,3.7-25.1-18.4-26.1-23s4.5,9.3,3.9,16.3s-2.4,6.9-4.4,9.3
	s10.8,20.1,25.5,17.8c14.7-2.2,12.2-15.9,12.2-15.9s11.2,41.3,11,45.1s-4.3,2.3-15.3,3.5c-11,1.2-20.3,3.2-21.7,7s0,0-5.9-19.8
	c-5.9-19.8-11.9-37-11.9-37s-5,1.6-12.5,6.9c-7.6,5.3-6.6,11.2-7.5,31.9c-0.9,20.7-1.8,40.3-4.7,22.5c-2.9-17.8-1.1-44.9,10.8-48.6
	c11.8-3.7,16.3,33.5,22.5,47.5c6.2,14,14,32.1,26.7,36.8c12.7,4.7,38.8,7.6,43,7.8s2.8,23.6,1.5,25.5s-4.3,17.4-10.2,28.9
	c-5.9,11.5,6.5-9.5,9.1-16.5s2.6,13.2,2.3,21.7s6.7-16.6,8.3-27.7c1.6-11,19.3-32,36.4-37.5c17-5.4,42.4,6.5,46,6s-10-6.4-25.4-11.2
	c-15.5-4.8,25.2-3,30-3.3s-26.3-1.6-33.5-2.1s11-7.7,15.3-11.9s-15.7,4.8-27.8,8.6c-12.2,3.8,12.4-10.8,15.5-15.8
	s-29.4,17.5-42.2,22.5c-12.9,5-20.8,23.4-18.6,30.7s27,9.4,37.3,6.8c10.3-2.6-4.8-1.6-10.2-1.9s6,0.4,8.6-3.4s-8.4-1.1-11.4-1.3
	s10.3-1.3,12.9-7s-6-0.4-10.3-0.6s9.2-4,9.3-7.9s0,0-7.9,2.1s-14.5-0.9-17.5-1.1s4.4-4.9,5.2-10.7s-17.1,4.8-19,6.6
	s-0.5,13-4.9,19.2s-58.2,2.5-70-10.7s-27-31.7-26.9-34.3s4.6,64.6,4.5,67.2s1.4,53.7,0.8,68.4c-0.6,14.7,7.4,76.1,13,91.9
	c5.6,15.8,14.3,35.2,12.2,52.4c-2.1,17.2-9.4,18.7-15.8,22s11.2-9.6,10.8-19.3s-5-42.9-4.1-45.2s22.9-0.2,22.9-0.2s4.2,57.1,2,65.8
	s-19.2,7.8-32.2,7.3c-13-0.5-8.5-4.7-7.5-8.5s2-2,2.8,3.9c0.6,4.1-80.7,6-188.8,6.3"></path><path d="M491.1,434.1c4.7-3.7,5.8-49.8,3-79.3c-3-32-16.9-66-16.5-84.7c0,0-0.9-12.6-2.2-35.9
	c-1.3-23.2,0.4-21.2-2.2-34.5c-2.6-13.2-12.6-57.3-15.1-72.9c-2.5-15.6,12.2-36,13.1-24.3c0.9,11.7-11.4,26.9-18.3,30.1
	s-15,4.5-12.9,14.6s7.1,16,0.7,18s-11.8-11.3-10.2-7.5s9.5,14.3-3.9,17.2c-13.4,2.9-30.7,2.4-32.7-10.8c-2-13.2-1.2-20,0.7-26.1
	s12.1-20.9,8.5-37.2c-3.6-16.3-10.2-26.6-8.7-39.4c1.5-12.8,18.6-9.7,9.2-23.2S377.3-3.9,387.4,1.7s25.8,19,23.9,28
	c-1.9,9-8.7,24.4-1,16.4c7.6-8,8.4-16.4,11.1-9.5s5.2,19.9,8.3,10.4c3.1-9.5,6.9-4.4,8.3-14.6c1.4-10.2,4.6-25.1,8-24.9
	s5.5,32,4.3,34.9s-34.2-2-27.1-11.2c7.1-9.2,30.5-16.5,43.4-7s9.3,14.7,11,16s22.3,15,22.3,15s-23.5-10.3-3.4,2.2
	c20.1,12.4,25.6,17.1,22.3,16.8s-8.5,1.8,1,9.2c9.5,7.4,31.2,16.8,19.5,14.8c-11.8-2.1-15.6-7.2-11.8-2.1s23.3,20.5,20.5,20.3
	s-17.2-15.2-6.2-0.4s13.2,19.2,14.2,33.4c0.9,14.2-3.2,31.1-5.4,21.8s-23-46.3-23.7-37.2c-0.7,9.2,0,37.5-3.7,21.9
	c-3.7-15.6-17.8-52.1-17.4-42.9c0.4,9.2-1.8,38.6-4.3,20.6c-2.5-18-11.5-52.8-13.4-40.2c-1.9,12.7,0,31.3-4.7,9.5
	c-4.7-21.7-21.7-50.4-20-47.9s23,42.6,15.1,41.4s2.4-34,19.6-15.7c17.2,18.3,28.6,48.5,51,57.9c22.4,9.5,6.2-3.2,8.5-1.9
	s44.5,24.4,57.9,27.1c13.3,2.7,82.5-16.9,106-7.5c23.5,9.4,40.4,35.3,44.8,51.3c4.4,16.1,1.3,54.3-0.8,68.3
	c-2.1,14-5.9,32.9-3.7,41.6s28.8,48.6,24.4,45.2s-6.7-22-0.2-43.9c6.4-21.8,26-33.6,14.3-70.2c-11.6-36.5-30.2-59.5-35.6-58.6
	s-0.4,30.9-0.4,52.2c0.1,21.4-21.3,52.1-10.7,76.8c10.5,24.7,18.8,24.5,22.7,47.1c4,22.6-17.3,108.4-21.8,110.8s-9.5-4.8-8.9,1.5
	s0,24.8-6.1,24.6s-38.8,4.3-34.8-1.3s27.5-21.9,33.1-33.7c5.6-11.8,15.4-71.8,12.6-84.4c-2.8-12.6-7.8-32.2-32.8-52.8
	c-25-20.6-48.2-75.1-41.5-72.3s18.8,35.1,7.1,46.8c-11.8,11.8-75.4,23.4-89.5,18.9c-14.1-4.5-7.9-59.8-3.6-38.4
	c4.3,21.5,2.3,51.5,7.2,75.1c4.9,23.6,2.5,36.8,3,45.8s5.2,54.5,7.4,59.1s5.1,7.9,3.3,9.8s-6.3-0.9-6.9,4.2s3.3,14.9-1.9,18
	s-39.2,6.9-33.4,1.3s16.2-10.4,18.1-21.9c1.8-11.5-7.3-66.9-15-91.5c-7.7-24.5-17.1-46.5-27.8-61.5s-47.2-86.2-37.1-74.9
	c10.1,11.2,32,72.1,19.6,59.5s-40.6-40.6-29.3-31.2s39,33,39.9,47.5c0.9,14.6-4.4,27-11.7,48.9c-7.3,22-11.2,86.8-10.9,67.4
	c0.3-19.3-0.2-57.7,9-89.8c9.1-31.8,44.9-14.2,40.6-40.2c-4.2-26-26.5-100.8-0.7-80.6c25.7,20.2,27.1,50.7,37.4,33.9
	c10.3-16.8,22.8-37.7,22.6-9.9c-0.2,27.9-12.8,54.7,2.4,54.3c15.2-0.4,21.9,4.9,35.3,18.7s21.2,19.8,23.9,31.2
	c2.8,11.4,4.3,66.9-0.2,82.6c-4.6,15.7-38.1,40.5-28.4,41.5c9.6,1,37.9,5.3,37.9-1.1s-2.8-10.3,1.7-10.1s9.6,0.4,6.2-3.6
	s-9-0.4-7.3-11.7c1.7-11.4,5.1-21.3,9.6-50.2c4.5-28.7,7.9-37.9,4.5-51.8c-3.3-13.9-23.3-27.4-8.9-20.4c14.4,7,33.3,22.3,38.3,36.9
	c5,14.6-0.5,67.1-4.9,77.7c-4.5,10.6-15.1,2.5-18.5,10.6c-3.4,8.1,58.7,30.3,62.6,24.7s5.5-18.1,11.1-9s1.7,14.6,11.1,8
	c9.4-6.6,20.3-11.8,17.6-4.3c-1.2,3.2-1.9,6.6-2.1,10c0-3.8,23.6-12.3,21.5-3.6s-15.9,9.5-7.1,7.3c8.8-2.2,82.2-1.8,86.6-1.6"></path></svg>